<svg xmlns="http://www.w3.org/2000/svg" width="2560" height="1964" fill="none" viewBox="0 0 2560 1964"><g filter="url(#filter0_f_835_19)"><rect width="235.957" height="1328.39" fill="#4314CB" opacity=".67" transform="matrix(-0.833501 0.552519 0.547264 0.83696 1113.38 -1182.65)"/><rect width="235.958" height="1328.39" fill="#8C35EC" transform="matrix(-0.833501 0.552519 0.547264 0.83696 916.707 -1052.28)"/><rect width="235.958" height="1328.39" fill="#BB44F0" transform="matrix(-0.833501 0.552519 0.547264 0.83696 720.036 -921.907)"/><rect width="235.958" height="1328.39" fill="#E554F3" transform="matrix(-0.833501 0.552519 0.547264 0.83696 523.366 -791.536)"/><rect width="235.958" height="1328.39" fill="#F664E4" transform="matrix(-0.833501 0.552519 0.547264 0.83696 326.696 -661.165)"/><rect width="235.958" height="1328.39" fill="#F974CC" transform="matrix(-0.833501 0.552519 0.547264 0.83696 130.026 -530.794)"/><rect width="235.958" height="1328.39" fill="#FB85B9" transform="matrix(-0.833501 0.552519 0.547264 0.83696 -66.6465 -400.423)"/><rect width="235.958" height="1328.39" fill="#FD97AE" transform="matrix(-0.833501 0.552519 0.547264 0.83696 -263.317 -270.052)"/><rect width="235.958" height="1328.39" fill="#FEA9AA" transform="matrix(-0.833501 0.552519 0.547264 0.83696 -459.987 -139.681)"/><rect width="235.958" height="1328.39" fill="#FFC9BB" transform="matrix(-0.833501 0.552519 0.547264 0.83696 -656.658 -9.3103)"/></g><defs><filter id="filter0_f_835_19" width="4680.37" height="4137" x="-1650" y="-2173.76" color-interpolation-filters="sRGB" filterUnits="userSpaceOnUse"><feFlood flood-opacity="0" result="BackgroundImageFix"/><feBlend in="SourceGraphic" in2="BackgroundImageFix" mode="normal" result="shape"/><feGaussianBlur result="effect1_foregroundBlur_835_19" stdDeviation="300"/></filter></defs></svg>